<svg width="11474" height="11474" viewBox="0 0 11474 11474" fill="none" xmlns="http://www.w3.org/2000/svg">
<g clip-path="url(#clip0_17_2506)" filter="url(#filter0_d_17_2506)">
<circle cx="5737" cy="5736" r="5734" fill="white"/>
<path d="M5646.56 2343.06C5807.24 2259.28 6003.38 2453.65 5918.01 2614.18C5868.43 2745.04 5680.44 2779.84 5584.41 2680.09C5482.67 2584.36 5515.85 2395.15 5646.56 2343.06ZM3918.31 2529.36C4015.92 2489.18 4139.48 2578.61 4129.52 2684.99C4139.88 2800.48 3998.67 2885.48 3899.18 2830.59C3767.36 2779.54 3782.44 2565.56 3918.31 2529.36V2529.36ZM7457.97 2833.84C7305.44 2815.41 7281.3 2575.59 7428.15 2527.3C7542.05 2471.75 7646.56 2575.92 7663.22 2683.88C7639.33 2776.08 7562.14 2860.49 7457.97 2833.84ZM4311.55 3264.93C4474.73 3161.72 4707.59 3315.43 4682.48 3504.98C4674.01 3696.36 4419.81 3807.24 4276.38 3677.86C4137.71 3576.23 4158.72 3343.08 4311.55 3264.93ZM6802.69 3374.45C6875.49 3186.82 7170.49 3181.15 7253.36 3363.8C7335.26 3505.93 7234.52 3681.95 7088.58 3730.27C6895.28 3766.36 6711.67 3557.39 6802.69 3374.45ZM5438.44 3719.62C5436.86 3558.35 5583.75 3438.18 5737.02 3427.2C5838.68 3447.58 5949.49 3490.89 5993.1 3593.48C6074.38 3734.99 6002.2 3929.84 5855.34 3994.79C5788.18 4032.43 5708.78 4018.31 5635.65 4013.92C5523.85 3959.04 5429.7 3851.4 5438.44 3719.62V3719.62ZM2868.27 3954.61C3017.34 3862.97 3218.45 4030.22 3162.02 4192.15C3130.94 4332.22 2942.66 4389.21 2835.02 4299.78C2720.12 4216 2738.33 4014.55 2868.27 3954.61V3954.61ZM8387.36 3954.32C8513.84 3856.12 8722.55 3968.77 8707.47 4128.45C8715.95 4274.05 8535.51 4383.87 8409.96 4308.89C8271.69 4246.74 8257.57 4034.01 8387.36 3954.32V3954.32ZM6161.22 4244.23C6369.93 4169.26 6617.83 4258.98 6736.78 4445.06C6893.7 4672.53 6810.21 5018.95 6566.7 5149.48C6314.38 5303.86 5945.95 5173 5852.76 4891.23C5746.97 4638.98 5901.09 4323.3 6161.22 4244.23V4244.23ZM4936.68 4269.04C5167.99 4159.86 5479.28 4251.46 5591.01 4488.07C5722.5 4718.38 5620.83 5039.08 5385.77 5157.99C5150.4 5291.65 4818.36 5190.32 4704.45 4943.05C4576.73 4703.93 4690.15 4379.15 4936.68 4269.04V4269.04ZM3710.56 4688.23C3728.14 4539.2 3868.73 4442.22 4010.57 4432.19C4163.4 4450.62 4285.48 4569.32 4302.11 4723.99C4292.08 4877.11 4173.76 5026.77 4011.49 5025.85C3832.97 5041.22 3676.46 4863.62 3710.56 4688.23V4688.23ZM7332.13 4464.59C7515.4 4357.91 7769.9 4513.21 7761.75 4723.77C7774.32 4946.85 7492.66 5104.07 7310.16 4973.21C7120.58 4864.24 7135.36 4557.37 7332.13 4464.59V4464.59ZM4438.35 5250.85C4652.7 5191.87 4897.79 5292.91 5002.92 5489.93C5118.08 5688.25 5071 5963.75 4892.15 6109.21C4662.76 6322.56 4239.7 6236.9 4117.62 5945.73C3977.32 5678.81 4147.73 5321.11 4438.35 5250.85V5250.85ZM6760.96 5249.74C6969.34 5190.14 7214.13 5270.46 7326.16 5460.3C7474.27 5677.41 7403.57 6001.24 7183.06 6141.2C6952.09 6303.72 6594.31 6218.39 6467.21 5964.27C6313.13 5701.41 6468.17 5329.92 6760.96 5249.74V5249.74ZM3059.69 5497.45C3244.85 5427.42 3450.09 5631.74 3375.08 5815.31C3329.26 5982.55 3093.57 6044.37 2971.81 5921.07C2829.34 5805.28 2882.09 5547.66 3059.69 5497.45V5497.45ZM8078.39 5763.85C8073.05 5610.43 8185.29 5474.56 8342.61 5466.08C8469.42 5486.17 8592.72 5588.46 8582.69 5726.51C8594.3 5908.83 8374.61 6032.76 8219.28 5947.09C8146.47 5910.08 8109.13 5835.4 8078.39 5763.85V5763.85ZM2149.28 5587.51C2260.68 5538.89 2398.47 5635.43 2373.03 5759.13C2367.06 5899.21 2160.27 5953.06 2084.3 5836.03C2017.17 5754.75 2057.35 5629.42 2149.28 5587.51ZM9172.99 5584.7C9251.43 5528.86 9377.28 5569 9408.35 5660.64C9461.07 5760.72 9364.42 5897.84 9251.77 5880.92C9093.63 5895.34 9042.47 5654.34 9172.99 5584.7ZM5043.4 6257.1C5336.52 6180.87 5651.61 6425.29 5653.45 6727.12C5672.58 7032.11 5362.25 7302.56 5062.19 7232.12C4830.26 7194.78 4648.28 6971.36 4655.8 6737C4655.17 6512.84 4824.33 6304.5 5043.4 6257.1ZM6204.24 6256.47C6501.75 6173.31 6826.24 6422.12 6821.52 6730.91C6837.23 7030.27 6536.58 7291.61 6242.8 7232.23C5966.33 7196.47 5762.34 6892.74 5839.53 6624.46C5878.49 6445.68 6027.86 6300.3 6204.24 6256.47V6256.47ZM3966.04 6442.25C4171.91 6407.12 4364.92 6636.81 4281.43 6832.28C4220.53 7040.59 3917.39 7097.1 3783.36 6926.94C3626.14 6763.54 3743.51 6464.81 3966.04 6442.25ZM7370.39 6451.43C7553.96 6374.54 7779.3 6533.34 7765.18 6732.57C7772.55 6951.9 7494.36 7103.14 7314.84 6975.12C7111.51 6860.19 7148.52 6521.95 7370.39 6451.43V6451.43ZM8321.93 7405.85C8250.05 7271.86 8380.62 7094.26 8529.39 7119.07C8603.45 7117.81 8655.24 7176.16 8702.64 7225.12C8712.37 7304.52 8728.7 7399.25 8662.79 7460.44C8573.29 7573.72 8370.55 7541.39 8321.93 7405.85ZM2867.64 7156.37C3006.68 7063.81 3206.77 7201.86 3175.51 7364.42C3158.89 7508.18 2977.78 7590.34 2858.5 7508.77C2730.48 7434.71 2735.2 7223.86 2867.64 7156.37V7156.37ZM5614.56 7457.31C5796.59 7376.99 6028.48 7535.45 6011.23 7735.94C6024.72 7957.48 5737.9 8110.9 5559.94 7977.87C5362.25 7863.63 5395.2 7527.57 5614.56 7457.31V7457.31ZM4342.29 7754.12C4497.33 7672.54 4705.37 7813.43 4691.26 7986.93C4695.98 8129.4 4556.93 8250.83 4416.34 8229.78C4299.9 8227.27 4223.96 8122.88 4186.62 8023.61C4188.54 7915.42 4233.07 7794.92 4342.29 7754.12V7754.12ZM6919.43 7756.62C7078.85 7658.09 7305.44 7799.6 7290.36 7985.16C7294.46 8179.09 7038.38 8303.32 6889.94 8175.92C6746.21 8076.06 6763.76 7836.02 6919.43 7756.62ZM7367.59 8864.57C7296.67 8757.27 7380.16 8627.99 7495.31 8603.52C7587.91 8622.35 7685.81 8691.98 7666.35 8799.33C7652.86 8944.6 7440.39 8989.16 7367.59 8864.57V8864.57ZM3810.04 8771.38C3838.28 8686.34 3906.7 8601.82 4006.81 8623.94C4152.75 8634.3 4196.06 8854.25 4068.33 8922.04C3953.47 8999.48 3820.22 8893.43 3810.04 8771.38V8771.38ZM5526.35 8868.96C5554.3 8743.15 5717.15 8681.96 5824.49 8748.79C5895.41 8779.24 5916.13 8858.6 5934.34 8926.06C5924.61 8961.18 5915.91 8996.35 5907.36 9031.48C5863.42 9083.56 5806.95 9135.65 5733.81 9133.77C5597.9 9149.69 5475.3 8996.06 5526.35 8868.96Z" fill="#349EFD"/>
</g>
<defs>
<filter id="filter0_d_17_2506" x="0" y="0" width="11474" height="11474" filterUnits="userSpaceOnUse" color-interpolation-filters="sRGB">
<feFlood flood-opacity="0" result="BackgroundImageFix"/>
<feColorMatrix in="SourceAlpha" type="matrix" values="0 0 0 0 0 0 0 0 0 0 0 0 0 0 0 0 0 0 127 0" result="hardAlpha"/>
<feOffset dy="1"/>
<feGaussianBlur stdDeviation="1.5"/>
<feColorMatrix type="matrix" values="0 0 0 0 0.129412 0 0 0 0 0.105882 0 0 0 0 0.305882 0 0 0 0.15 0"/>
<feBlend mode="normal" in2="BackgroundImageFix" result="effect1_dropShadow_17_2506"/>
<feBlend mode="normal" in="SourceGraphic" in2="effect1_dropShadow_17_2506" result="shape"/>
</filter>
<clipPath id="clip0_17_2506">
<rect width="11468" height="11468" fill="white" transform="translate(3 2)"/>
</clipPath>
</defs>
</svg>
