<svg width="1221" height="1675" viewBox="0 0 1221 1675" fill="none" xmlns="http://www.w3.org/2000/svg">
<path fill-rule="evenodd" clip-rule="evenodd" d="M144.458 1118.4V195.667C144.458 137.42 231.355 80.7809 287.813 95.1644L954.861 265.107C969.478 268.83 981.993 277.117 992.278 288.518C977.739 232.099 946.404 188.625 891.789 174.682L221.823 3.48116C156.04 -13.3277 72.0347 50.8078 72.0347 118.718V1098.16C72.0347 1120.42 103.383 1169.36 152.175 1224.65C140.606 1181.87 144.458 1127.47 144.458 1118.4ZM169.204 1179.24C211.317 1301.39 246.322 1339.95 335.412 1315.42L969.179 1140.94C1058 1116.48 1092.63 1063.97 1092.63 996.083V357.387C1092.63 321.318 1054.52 276.754 1008.93 240.374C1029.45 298.037 1026.79 368.878 1026.79 393.897V941.934C1026.79 1000.18 990.566 1045.51 914.265 1066.24L368.822 1214.31C257.982 1244.4 211.486 1224.53 169.204 1179.24Z" fill="#2D5CA7"/>
<path fill-rule="evenodd" clip-rule="evenodd" d="M174.275 321.396L991.215 426.633V486.786L174.275 429.136V321.396Z" fill="#F5D137"/>
<path fill-rule="evenodd" clip-rule="evenodd" d="M189.307 855.154L988.699 837.619V877.708L189.307 962.919V855.154Z" fill="#774A99"/>
<path fill-rule="evenodd" clip-rule="evenodd" d="M610.293 1609.9C946.119 1536.87 1220.03 1431.22 1220.03 1374.7C1220.03 1318.17 946.119 1331.69 610.293 1404.71C274.48 1477.74 0.59729 1583.39 0.59729 1639.92C0.59729 1696.44 274.493 1682.94 610.293 1609.9Z" fill="white"/>
<path fill-rule="evenodd" clip-rule="evenodd" d="M610.293 1606.58C935.276 1535.91 1200.34 1433.67 1200.34 1378.98C1200.34 1324.28 935.263 1337.33 610.293 1408C285.323 1478.7 20.2724 1580.94 20.2724 1635.64C20.2724 1690.32 285.336 1677.27 610.293 1606.58Z" fill="#F7F8FC"/>
<path fill-rule="evenodd" clip-rule="evenodd" d="M610.293 1603.28C924.434 1534.95 1180.66 1436.11 1180.66 1383.27C1180.66 1330.4 924.434 1343.01 610.293 1411.34C296.165 1479.66 39.9476 1578.5 39.9476 1631.37C39.9476 1684.23 296.165 1671.61 610.293 1603.28Z" fill="#F1F3FA"/>
<path fill-rule="evenodd" clip-rule="evenodd" d="M610.293 1599.98C913.617 1534.02 1160.98 1438.57 1160.98 1387.55C1160.98 1336.5 913.617 1348.69 610.293 1414.66C307.008 1480.62 59.6227 1576.04 59.6227 1627.09C59.6227 1678.14 307.008 1665.95 610.293 1599.98Z" fill="#EEEEF7"/>
<path fill-rule="evenodd" clip-rule="evenodd" d="M610.293 1596.66C902.774 1533.06 1141.29 1441.02 1141.29 1391.83C1141.29 1342.61 902.761 1354.33 610.293 1417.98C317.838 1481.58 79.2979 1573.59 79.2979 1622.81C79.2979 1672.03 317.851 1660.26 610.293 1596.66Z" fill="#E9ECF7"/>
<path fill-rule="evenodd" clip-rule="evenodd" d="M610.293 1593.34C891.931 1532.08 1121.64 1443.48 1121.64 1396.11C1121.64 1348.72 891.931 1360.01 610.293 1421.26C328.68 1482.51 98.9859 1571.12 98.9859 1618.52C98.9859 1665.91 328.68 1654.6 610.293 1593.34Z" fill="#E4E8F5"/>
<path fill-rule="evenodd" clip-rule="evenodd" d="M610.293 1590.05C881.089 1531.15 1101.95 1445.94 1101.95 1400.39C1101.95 1354.81 881.089 1365.68 610.293 1424.58C339.51 1483.47 118.648 1568.66 118.648 1614.24C118.648 1659.81 339.523 1648.94 610.293 1590.05Z" fill="#DFE2F2"/>
<path fill-rule="evenodd" clip-rule="evenodd" d="M610.293 1586.73C870.246 1530.19 1082.28 1448.39 1082.28 1404.67C1082.28 1360.92 870.246 1371.36 610.293 1427.9C350.353 1484.43 138.336 1566.21 138.336 1609.96C138.336 1653.7 350.353 1643.27 610.293 1586.73Z" fill="#DAE1F2"/>
<path fill-rule="evenodd" clip-rule="evenodd" d="M610.293 1583.41C859.403 1529.22 1062.59 1450.84 1062.59 1408.95C1062.59 1367.03 859.403 1377.01 610.293 1431.19C361.183 1485.38 157.998 1563.76 157.998 1605.68C157.998 1647.59 361.196 1637.59 610.293 1583.41Z" fill="#D7DCEF"/>
<path fill-rule="evenodd" clip-rule="evenodd" d="M610.293 1580.11C848.586 1528.28 1042.93 1453.31 1042.93 1413.2C1042.93 1373.13 848.586 1382.67 610.293 1434.51C372.025 1486.34 177.686 1561.32 177.686 1601.4C177.686 1641.5 372.025 1631.93 610.293 1580.11Z" fill="#D2D8ED"/>
<path fill-rule="evenodd" clip-rule="evenodd" d="M610.293 1576.8C837.744 1527.34 1023.25 1455.77 1023.25 1417.5C1023.25 1379.25 837.744 1388.37 610.293 1437.83C382.855 1487.3 197.362 1558.84 197.362 1597.12C197.362 1635.39 382.868 1626.27 610.293 1576.8Z" fill="#CED5EC"/>
<path fill-rule="evenodd" clip-rule="evenodd" d="M610.293 1573.48C826.901 1526.36 1003.56 1458.22 1003.56 1421.78C1003.56 1385.34 826.901 1394.03 610.293 1441.13C393.698 1488.25 217.037 1556.42 217.037 1592.84C217.05 1629.28 393.711 1620.6 610.293 1573.48Z" fill="#C9D1EA"/>
<path fill-rule="evenodd" clip-rule="evenodd" d="M610.293 1570.16C816.058 1525.43 983.887 1460.69 983.887 1426.06C983.887 1391.45 816.071 1399.72 610.293 1444.45C404.541 1489.21 236.725 1553.95 236.725 1588.55C236.725 1623.18 404.541 1614.92 610.293 1570.16Z" fill="#C6CEE9"/>
<path fill-rule="evenodd" clip-rule="evenodd" d="M610.293 1566.87C805.216 1524.46 964.199 1463.14 964.199 1430.34C964.199 1397.54 805.216 1405.36 610.293 1447.77C415.37 1490.18 256.387 1551.5 256.387 1584.3C256.4 1617.08 415.383 1609.25 610.293 1566.87Z" fill="#C2CBE7"/>
<path fill-rule="evenodd" clip-rule="evenodd" d="M610.293 1563.55C794.373 1523.5 944.537 1465.59 944.537 1434.62C944.537 1403.66 794.373 1411.04 610.293 1451.09C426.213 1491.11 276.075 1549.05 276.075 1580.02C276.075 1610.97 426.226 1603.6 610.293 1563.55Z" fill="#BDC8E5"/>
<path fill-rule="evenodd" clip-rule="evenodd" d="M610.293 1560.23C783.556 1522.56 924.862 1468.05 924.862 1438.9C924.862 1409.74 783.556 1416.71 610.293 1454.37C437.056 1492.06 295.75 1546.57 295.75 1575.7C295.75 1604.87 437.069 1597.93 610.293 1560.23Z" fill="#B9C4E4"/>
<path fill-rule="evenodd" clip-rule="evenodd" d="M610.293 1556.93C772.713 1521.59 905.174 1470.5 905.174 1443.18C905.174 1415.85 772.713 1422.37 610.293 1457.69C447.899 1493.01 315.425 1544.12 315.425 1571.45C315.425 1598.76 447.899 1592.25 610.293 1556.93Z" fill="#B7C2E3"/>
<path fill-rule="evenodd" clip-rule="evenodd" d="M610.293 1553.61C761.884 1520.66 885.498 1472.96 885.498 1447.44C885.498 1421.93 761.884 1428.02 610.293 1461C458.728 1493.95 335.1 1541.66 335.1 1567.17C335.1 1592.65 458.728 1586.57 610.293 1553.61Z" fill="#B2BFE1"/>
<path fill-rule="evenodd" clip-rule="evenodd" d="M610.293 1550.31C751.041 1519.71 865.836 1475.43 865.836 1451.74C865.836 1428.04 751.028 1433.7 610.293 1464.3C469.571 1494.93 354.776 1539.21 354.776 1562.9C354.789 1586.56 469.571 1580.93 610.293 1550.31Z" fill="#AEBBDF"/>
<path fill-rule="evenodd" clip-rule="evenodd" d="M610.293 1547.01C740.198 1518.74 846.161 1477.88 846.161 1456.02C846.161 1434.15 740.198 1439.38 610.293 1467.62C480.401 1495.87 374.451 1536.75 374.451 1558.62C374.451 1580.49 480.414 1575.25 610.293 1547.01Z" fill="#A9B8DE"/>
<path fill-rule="evenodd" clip-rule="evenodd" d="M610.293 1543.69C729.355 1517.8 826.473 1480.34 826.473 1460.3C826.473 1440.26 729.355 1445.04 610.293 1470.93C491.244 1496.82 394.126 1534.29 394.126 1554.33C394.126 1574.37 491.244 1569.58 610.293 1543.69Z" fill="#A7B4DB"/>
<path fill-rule="evenodd" clip-rule="evenodd" d="M610.293 1540.37C718.539 1516.85 806.785 1482.8 806.785 1464.58C806.785 1446.35 718.526 1450.7 610.293 1474.25C502.086 1497.78 413.814 1531.83 413.814 1550.05C413.814 1568.27 502.086 1563.9 610.293 1540.37Z" fill="#A3B3DB"/>
<path fill-rule="evenodd" clip-rule="evenodd" d="M802.09 629.026L991.215 637.132V677.234L801.96 677.818L802.09 629.026ZM174.275 602.062L425.046 612.827L428.509 668.921L176.766 679.738L174.275 602.062Z" fill="#A7C959"/>
<path fill-rule="evenodd" clip-rule="evenodd" d="M414.839 419.11H505.056L497.534 1130.81L452.438 1133.32L414.839 419.11ZM718.059 241.204L803.27 256.236L800.767 1055.63L755.645 1070.67L718.059 241.204Z" fill="#CC262F"/>
</svg>
