<svg width="11476" height="11476" viewBox="0 0 11476 11476" fill="none" xmlns="http://www.w3.org/2000/svg">
<g filter="url(#filter0_d_17_2492)">
<g clip-path="url(#clip0_17_2492)">
<circle cx="5738" cy="5737" r="5734" fill="#FCFDFF"/>
<path d="M5647.56 2344.06C5808.24 2260.28 6004.38 2454.65 5919.01 2615.18C5869.43 2746.04 5681.44 2780.83 5585.41 2681.09C5483.67 2585.36 5516.85 2396.15 5647.56 2344.06ZM3919.31 2530.36C4016.92 2490.18 4140.48 2579.61 4130.52 2685.99C4140.88 2801.48 3999.67 2886.48 3900.18 2831.59C3768.36 2780.54 3783.44 2566.56 3919.31 2530.36V2530.36ZM7458.97 2834.84C7306.44 2816.41 7282.3 2576.58 7429.15 2528.3C7543.05 2472.75 7647.56 2576.92 7664.22 2684.88C7640.33 2777.07 7563.14 2861.49 7458.97 2834.84ZM4312.55 3265.93C4475.73 3162.72 4708.59 3316.43 4683.48 3505.98C4675.01 3697.36 4420.81 3808.24 4277.38 3678.86C4138.71 3577.23 4159.72 3344.08 4312.55 3265.93ZM6803.69 3375.45C6876.49 3187.82 7171.49 3182.15 7254.36 3364.8C7336.26 3506.93 7235.52 3682.95 7089.58 3731.27C6896.28 3767.36 6712.67 3558.39 6803.69 3375.45ZM5439.44 3720.62C5437.86 3559.35 5584.75 3439.18 5738.02 3428.2C5839.68 3448.58 5950.49 3491.89 5994.1 3594.48C6075.38 3735.99 6003.2 3930.84 5856.34 3995.79C5789.18 4033.43 5709.78 4019.31 5636.65 4014.92C5524.85 3960.04 5430.7 3852.4 5439.44 3720.62V3720.62ZM2869.27 3955.61C3018.34 3863.97 3219.45 4031.22 3163.02 4193.15C3131.94 4333.22 2943.66 4390.21 2836.02 4300.78C2721.12 4217 2739.33 4015.55 2869.27 3955.61V3955.61ZM8388.36 3955.32C8514.84 3857.12 8723.55 3969.77 8708.47 4129.45C8716.95 4275.05 8536.51 4384.86 8410.96 4309.89C8272.69 4247.74 8258.57 4035.01 8388.36 3955.32V3955.32ZM6162.22 4245.23C6370.93 4170.26 6618.83 4259.98 6737.78 4446.06C6894.7 4673.53 6811.21 5019.95 6567.7 5150.48C6315.38 5304.86 5946.95 5174 5853.76 4892.23C5747.97 4639.98 5902.09 4324.3 6162.22 4245.23V4245.23ZM4937.68 4270.04C5168.99 4160.86 5480.28 4252.46 5592.01 4489.07C5723.5 4719.38 5621.83 5040.08 5386.77 5158.99C5151.4 5292.65 4819.36 5191.32 4705.45 4944.05C4577.73 4704.93 4691.15 4380.15 4937.68 4270.04V4270.04ZM3711.56 4689.23C3729.14 4540.2 3869.73 4443.22 4011.57 4433.19C4164.4 4451.62 4286.48 4570.32 4303.11 4724.99C4293.08 4878.11 4174.76 5027.77 4012.49 5026.85C3833.97 5042.22 3677.46 4864.62 3711.56 4689.23V4689.23ZM7333.13 4465.59C7516.4 4358.91 7770.9 4514.21 7762.75 4724.77C7775.32 4947.85 7493.66 5105.07 7311.16 4974.21C7121.58 4865.24 7136.36 4558.37 7333.13 4465.59V4465.59ZM4439.35 5251.85C4653.7 5192.87 4898.79 5293.91 5003.92 5490.93C5119.08 5689.25 5072 5964.75 4893.15 6110.21C4663.76 6323.56 4240.7 6237.89 4118.62 5946.73C3978.32 5679.81 4148.73 5322.11 4439.35 5251.85V5251.85ZM6761.96 5250.74C6970.34 5191.14 7215.13 5271.46 7327.16 5461.3C7475.27 5678.41 7404.57 6002.24 7184.06 6142.2C6953.09 6304.72 6595.31 6219.39 6468.21 5965.27C6314.13 5702.41 6469.17 5330.92 6761.96 5250.74V5250.74ZM3060.69 5498.45C3245.85 5428.42 3451.09 5632.74 3376.08 5816.31C3330.26 5983.55 3094.57 6045.37 2972.81 5922.07C2830.34 5806.28 2883.09 5548.66 3060.69 5498.45V5498.45ZM8079.39 5764.85C8074.05 5611.43 8186.29 5475.56 8343.61 5467.08C8470.42 5487.17 8593.72 5589.46 8583.69 5727.51C8595.3 5909.83 8375.61 6033.76 8220.28 5948.09C8147.47 5911.08 8110.13 5836.4 8079.39 5764.85V5764.85ZM2150.28 5588.5C2261.68 5539.88 2399.47 5636.42 2374.03 5760.13C2368.06 5900.21 2161.27 5954.06 2085.3 5837.03C2018.17 5755.75 2058.35 5630.42 2150.28 5588.5ZM9173.99 5585.7C9252.43 5529.86 9378.28 5570 9409.35 5661.64C9462.07 5761.72 9365.42 5898.84 9252.77 5881.92C9094.63 5896.34 9043.47 5655.33 9173.99 5585.7ZM5044.4 6258.09C5337.52 6181.87 5652.61 6426.29 5654.45 6728.12C5673.58 7033.11 5363.25 7303.56 5063.19 7233.12C4831.26 7195.78 4649.28 6972.36 4656.8 6737.99C4656.17 6513.84 4825.33 6305.5 5044.4 6258.09ZM6205.24 6257.47C6502.75 6174.31 6827.24 6423.12 6822.52 6731.91C6838.23 7031.27 6537.58 7292.61 6243.8 7233.23C5967.33 7197.47 5763.34 6893.73 5840.53 6625.46C5879.49 6446.68 6028.86 6301.3 6205.24 6257.47V6257.47ZM3967.04 6443.25C4172.91 6408.12 4365.92 6637.81 4282.43 6833.28C4221.53 7041.59 3918.39 7098.1 3784.36 6927.94C3627.14 6764.54 3744.51 6465.81 3967.04 6443.25ZM7371.39 6452.43C7554.96 6375.54 7780.3 6534.34 7766.18 6733.57C7773.55 6952.9 7495.36 7104.14 7315.84 6976.12C7112.51 6861.19 7149.52 6522.94 7371.39 6452.43V6452.43ZM8322.93 7406.85C8251.05 7272.86 8381.62 7095.26 8530.39 7120.06C8604.45 7118.81 8656.24 7177.16 8703.64 7226.12C8713.37 7305.52 8729.7 7400.25 8663.79 7461.44C8574.29 7574.72 8371.55 7542.39 8322.93 7406.85ZM2868.64 7157.37C3007.68 7064.81 3207.77 7202.86 3176.51 7365.42C3159.89 7509.18 2978.78 7591.34 2859.5 7509.77C2731.48 7435.71 2736.2 7224.86 2868.64 7157.37V7157.37ZM5615.56 7458.31C5797.59 7377.99 6029.48 7536.45 6012.23 7736.94C6025.72 7958.48 5738.9 8111.9 5560.94 7978.87C5363.25 7864.63 5396.2 7528.56 5615.56 7458.31V7458.31ZM4343.29 7755.12C4498.33 7673.54 4706.37 7814.43 4692.26 7987.93C4696.98 8130.4 4557.93 8251.82 4417.34 8230.78C4300.9 8228.27 4224.96 8123.88 4187.62 8024.61C4189.54 7916.42 4234.07 7795.92 4343.29 7755.12V7755.12ZM6920.43 7757.62C7079.85 7659.09 7306.44 7800.6 7291.36 7986.16C7295.46 8180.09 7039.38 8304.32 6890.94 8176.92C6747.21 8077.06 6764.76 7837.02 6920.43 7757.62ZM7368.59 8865.57C7297.67 8758.27 7381.16 8628.99 7496.31 8604.52C7588.91 8623.35 7686.81 8692.98 7667.35 8800.32C7653.86 8945.6 7441.39 8990.16 7368.59 8865.57V8865.57ZM3811.04 8772.38C3839.28 8687.34 3907.7 8602.82 4007.81 8624.94C4153.75 8635.3 4197.06 8855.25 4069.33 8923.04C3954.47 9000.48 3821.22 8894.43 3811.04 8772.38V8772.38ZM5527.35 8869.96C5555.3 8744.15 5718.15 8682.96 5825.49 8749.79C5896.41 8780.24 5917.13 8859.6 5935.34 8927.05C5925.61 8962.18 5916.91 8997.35 5908.36 9032.48C5864.42 9084.56 5807.95 9136.65 5734.81 9134.77C5598.9 9150.69 5476.3 8997.05 5527.35 8869.96Z" fill="url(#paint0_linear_17_2492)"/>
</g>
<rect x="3.5" y="2.5" width="11469" height="11469" stroke="#FFFDFD"/>
</g>
<defs>
<filter id="filter0_d_17_2492" x="0" y="0" width="11476" height="11476" filterUnits="userSpaceOnUse" color-interpolation-filters="sRGB">
<feFlood flood-opacity="0" result="BackgroundImageFix"/>
<feColorMatrix in="SourceAlpha" type="matrix" values="0 0 0 0 0 0 0 0 0 0 0 0 0 0 0 0 0 0 127 0" result="hardAlpha"/>
<feOffset dy="1"/>
<feGaussianBlur stdDeviation="1.5"/>
<feColorMatrix type="matrix" values="0 0 0 0 0.129412 0 0 0 0 0.105882 0 0 0 0 0.305882 0 0 0 0.15 0"/>
<feBlend mode="normal" in2="BackgroundImageFix" result="effect1_dropShadow_17_2492"/>
<feBlend mode="normal" in="SourceGraphic" in2="effect1_dropShadow_17_2492" result="shape"/>
</filter>
<linearGradient id="paint0_linear_17_2492" x1="5738" y1="2323.9" x2="5738" y2="9135.91" gradientUnits="userSpaceOnUse">
<stop stop-color="#F93658"/>
<stop offset="1" stop-color="#FBC472"/>
</linearGradient>
<clipPath id="clip0_17_2492">
<rect x="4" y="3" width="11468" height="11468" fill="white"/>
</clipPath>
</defs>
</svg>
